<mxfile host="app.diagrams.net" modified="2020-09-15T08:33:11.503Z" agent="5.0 (Windows)" etag="G1c9f4UaJvnu6XTPqg0c" version="13.7.1" type="github">
  <diagram id="56TerAJNQeNzK9zQXcnt" name="Page-1">
    <mxGraphModel dx="2079" dy="487" grid="1" gridSize="10" guides="1" tooltips="1" connect="1" arrows="1" fold="1" page="1" pageScale="1" pageWidth="1169" pageHeight="827" math="0" shadow="0">
      <root>
        <mxCell id="0" />
        <mxCell id="1" parent="0" />
        <mxCell id="i0GI3w575Y6lM5jMSY5M-1" value="Trade fairs and Exhibitions - Post event Activities" style="swimlane;" vertex="1" parent="1">
          <mxGeometry x="-1120" y="40" width="1240" height="650" as="geometry" />
        </mxCell>
        <mxCell id="i0GI3w575Y6lM5jMSY5M-2" value="Start" style="rounded=1;whiteSpace=wrap;html=1;fontSize=10;" vertex="1" parent="i0GI3w575Y6lM5jMSY5M-1">
          <mxGeometry x="567" y="40" width="104" height="40" as="geometry" />
        </mxCell>
        <mxCell id="i0GI3w575Y6lM5jMSY5M-5" value="&lt;p style=&quot;margin-bottom: 0in ; line-height: 100% ; font-size: 11px&quot;&gt;&lt;font style=&quot;font-size: 10px&quot; face=&quot;Arial, serif&quot;&gt;After the event, Event Coordinator sends out invitation letters to exhibitors to attend the&lt;/font&gt;&lt;font style=&quot;font-size: 10px&quot; face=&quot;Arial, serif&quot;&gt; Postmortem/Event Review meeting&lt;/font&gt;&lt;/p&gt;" style="rounded=0;whiteSpace=wrap;html=1;" vertex="1" parent="i0GI3w575Y6lM5jMSY5M-1">
          <mxGeometry x="539" y="150" width="160" height="60" as="geometry" />
        </mxCell>
        <mxCell id="i0GI3w575Y6lM5jMSY5M-4" value="" style="edgeStyle=orthogonalEdgeStyle;rounded=0;orthogonalLoop=1;jettySize=auto;html=1;entryX=0.5;entryY=0;entryDx=0;entryDy=0;" edge="1" parent="i0GI3w575Y6lM5jMSY5M-1" source="i0GI3w575Y6lM5jMSY5M-2" target="i0GI3w575Y6lM5jMSY5M-5">
          <mxGeometry relative="1" as="geometry">
            <mxPoint x="619" y="150" as="targetPoint" />
          </mxGeometry>
        </mxCell>
        <mxCell id="i0GI3w575Y6lM5jMSY5M-12" value="End" style="rounded=1;whiteSpace=wrap;html=1;fontSize=10;" vertex="1" parent="i0GI3w575Y6lM5jMSY5M-1">
          <mxGeometry x="579" y="570" width="80" height="50" as="geometry" />
        </mxCell>
        <mxCell id="i0GI3w575Y6lM5jMSY5M-9" value="" style="edgeStyle=orthogonalEdgeStyle;rounded=0;orthogonalLoop=1;jettySize=auto;html=1;fontSize=10;" edge="1" parent="1" source="i0GI3w575Y6lM5jMSY5M-6" target="i0GI3w575Y6lM5jMSY5M-8">
          <mxGeometry relative="1" as="geometry" />
        </mxCell>
        <mxCell id="i0GI3w575Y6lM5jMSY5M-6" value="&lt;p style=&quot;margin-bottom: 0in ; line-height: 100% ; font-size: 10px&quot;&gt;&lt;font style=&quot;font-size: 10px&quot; face=&quot;Arial, serif&quot;&gt;Event Coordinator convenes the&lt;/font&gt;&lt;font style=&quot;font-size: 10px&quot; face=&quot;Arial, serif&quot;&gt;&lt;b&gt; &lt;/b&gt;Postmortem/Event Review meeting &lt;/font&gt;&lt;font style=&quot;font-size: 10px&quot; face=&quot;Arial, serif&quot;&gt;for participants&lt;/font&gt;&lt;/p&gt;" style="whiteSpace=wrap;html=1;rounded=0;fontSize=10;" vertex="1" parent="1">
          <mxGeometry x="-561" y="330" width="120" height="60" as="geometry" />
        </mxCell>
        <mxCell id="i0GI3w575Y6lM5jMSY5M-7" value="" style="edgeStyle=orthogonalEdgeStyle;rounded=0;orthogonalLoop=1;jettySize=auto;html=1;fontSize=10;" edge="1" parent="1" source="i0GI3w575Y6lM5jMSY5M-5" target="i0GI3w575Y6lM5jMSY5M-6">
          <mxGeometry relative="1" as="geometry" />
        </mxCell>
        <mxCell id="i0GI3w575Y6lM5jMSY5M-11" value="" style="edgeStyle=orthogonalEdgeStyle;rounded=0;orthogonalLoop=1;jettySize=auto;html=1;fontSize=10;entryX=0.5;entryY=0;entryDx=0;entryDy=0;" edge="1" parent="1" source="i0GI3w575Y6lM5jMSY5M-8" target="i0GI3w575Y6lM5jMSY5M-12">
          <mxGeometry relative="1" as="geometry">
            <mxPoint x="-501" y="610" as="targetPoint" />
          </mxGeometry>
        </mxCell>
        <mxCell id="i0GI3w575Y6lM5jMSY5M-8" value="&lt;p style=&quot;margin-bottom: 0in ; line-height: 100%&quot;&gt;&lt;br/&gt;&lt;font face=&quot;Arial, serif&quot;&gt;The Event Coordinator undertakes follow-up&lt;br/&gt;activities and writes the final report&lt;/font&gt;&lt;/p&gt;&lt;br/&gt;" style="whiteSpace=wrap;html=1;rounded=0;fontSize=10;" vertex="1" parent="1">
          <mxGeometry x="-561" y="470" width="120" height="60" as="geometry" />
        </mxCell>
      </root>
    </mxGraphModel>
  </diagram>
</mxfile>
